# xmcd CD database file
#
# Track frame offsets:
#	183
#	23920
#	50285
#	77603
#	92455
#	122835
#	162498
#	200633
#
# Disc length: 3070 seconds
#
# Revision: 7
# Processed by: cddbd v1.5.2PL0 Copyright (c) Steve Scherf et al.
# Submitted via: CDex 1.51
#
DISCID=5f0bfc08
DTITLE=Vangelis and Irene Papas - Ωδές
DYEAR=1979
DGENRE=New Age
TTITLE0=40 Παλληκάρια
TTITLE1=Νεραντζούλα
TTITLE2=Χορός Της Φωτιάς
TTITLE3=Οι Κολοκοτρωναίοι
TTITLE4=Το Ποτάμι
TTITLE5=Οι Ρίζες
TTITLE6=Μοιρολόι
TTITLE7=Ο Μενούσης
EXTD=YEAR: 1979
EXTT0=
EXTT1=
EXTT2=
EXTT3=
EXTT4=
EXTT5=
EXTT6=
EXTT7=
PLAYORDER=
